<mxfile host="app.diagrams.net" modified="2021-10-28T13:52:37.002Z" agent="5.0 (X11; Linux x86_64) AppleWebKit/537.36 (KHTML, like Gecko) Chrome/93.0.4577.63 Safari/537.36" etag="iUbQXGxU8x32LMcrZNUk" version="15.6.1" type="github">
  <diagram id="gBcou01xzdm4x2pavO9m" name="Page-1">
    <mxGraphModel dx="1422" dy="734" grid="1" gridSize="10" guides="1" tooltips="1" connect="1" arrows="1" fold="1" page="1" pageScale="1" pageWidth="827" pageHeight="1169" math="0" shadow="0">
      <root>
        <mxCell id="0" />
        <mxCell id="1" parent="0" />
        <mxCell id="WGsIFe5JLrjPhLiVAVNB-75" value="" style="rounded=0;whiteSpace=wrap;html=1;fontSize=13;align=center;" vertex="1" parent="1">
          <mxGeometry x="254" y="355" width="340" height="320" as="geometry" />
        </mxCell>
        <mxCell id="WGsIFe5JLrjPhLiVAVNB-2" value="" style="rounded=1;whiteSpace=wrap;html=1;fontSize=10;align=left;" vertex="1" parent="1">
          <mxGeometry x="319" y="390" width="180" height="199" as="geometry" />
        </mxCell>
        <mxCell id="3pWWZFJcayxJ1vsHzLGc-102" style="edgeStyle=orthogonalEdgeStyle;rounded=0;orthogonalLoop=1;jettySize=auto;html=1;exitX=0.5;exitY=1;exitDx=0;exitDy=0;entryX=0.5;entryY=0;entryDx=0;entryDy=0;" parent="1" source="3pWWZFJcayxJ1vsHzLGc-2" target="3pWWZFJcayxJ1vsHzLGc-3" edge="1">
          <mxGeometry relative="1" as="geometry" />
        </mxCell>
        <mxCell id="3pWWZFJcayxJ1vsHzLGc-2" value="" style="rounded=0;whiteSpace=wrap;html=1;" parent="1" vertex="1">
          <mxGeometry x="320" y="20" width="210" height="80" as="geometry" />
        </mxCell>
        <mxCell id="WGsIFe5JLrjPhLiVAVNB-76" style="edgeStyle=none;rounded=0;orthogonalLoop=1;jettySize=auto;html=1;exitX=0.5;exitY=1;exitDx=0;exitDy=0;entryX=0.5;entryY=0;entryDx=0;entryDy=0;fontSize=13;endArrow=classic;endFill=1;" edge="1" parent="1" source="3pWWZFJcayxJ1vsHzLGc-3" target="WGsIFe5JLrjPhLiVAVNB-66">
          <mxGeometry relative="1" as="geometry" />
        </mxCell>
        <mxCell id="WGsIFe5JLrjPhLiVAVNB-78" style="edgeStyle=orthogonalEdgeStyle;rounded=0;orthogonalLoop=1;jettySize=auto;html=1;exitX=0;exitY=0.5;exitDx=0;exitDy=0;fontSize=13;endArrow=classic;endFill=1;entryX=0;entryY=0.5;entryDx=0;entryDy=0;" edge="1" parent="1" source="3pWWZFJcayxJ1vsHzLGc-3" target="WGsIFe5JLrjPhLiVAVNB-83">
          <mxGeometry relative="1" as="geometry">
            <mxPoint x="260" y="560" as="targetPoint" />
            <Array as="points">
              <mxPoint x="200" y="175" />
              <mxPoint x="200" y="647" />
            </Array>
          </mxGeometry>
        </mxCell>
        <mxCell id="3pWWZFJcayxJ1vsHzLGc-3" value="Escalonador" style="rounded=0;whiteSpace=wrap;html=1;fillColor=#dae8fc;strokeColor=#6c8ebf;" parent="1" vertex="1">
          <mxGeometry x="334.5" y="160" width="180" height="30" as="geometry" />
        </mxCell>
        <mxCell id="3pWWZFJcayxJ1vsHzLGc-4" value="c1" style="rounded=0;whiteSpace=wrap;html=1;fillColor=#f5f5f5;fontColor=#333333;strokeColor=#666666;" parent="1" vertex="1">
          <mxGeometry x="330" y="50" width="40" height="40" as="geometry" />
        </mxCell>
        <mxCell id="3pWWZFJcayxJ1vsHzLGc-5" value="c2" style="rounded=0;whiteSpace=wrap;html=1;fillColor=#f5f5f5;fontColor=#333333;strokeColor=#666666;" parent="1" vertex="1">
          <mxGeometry x="380" y="50" width="40" height="40" as="geometry" />
        </mxCell>
        <mxCell id="3pWWZFJcayxJ1vsHzLGc-6" value="c3" style="rounded=0;whiteSpace=wrap;html=1;fillColor=#f5f5f5;fontColor=#333333;strokeColor=#666666;" parent="1" vertex="1">
          <mxGeometry x="430" y="50" width="40" height="40" as="geometry" />
        </mxCell>
        <mxCell id="3pWWZFJcayxJ1vsHzLGc-7" value="c4" style="rounded=0;whiteSpace=wrap;html=1;fillColor=#f5f5f5;fontColor=#333333;strokeColor=#666666;" parent="1" vertex="1">
          <mxGeometry x="480" y="50" width="40" height="40" as="geometry" />
        </mxCell>
        <mxCell id="3pWWZFJcayxJ1vsHzLGc-8" value="Job" style="text;html=1;strokeColor=none;fillColor=none;align=center;verticalAlign=middle;whiteSpace=wrap;rounded=0;" parent="1" vertex="1">
          <mxGeometry x="320" y="20" width="40" height="20" as="geometry" />
        </mxCell>
        <mxCell id="3pWWZFJcayxJ1vsHzLGc-9" value="Worker 1" style="rounded=0;whiteSpace=wrap;html=1;" parent="1" vertex="1">
          <mxGeometry x="339" y="409" width="140" height="31" as="geometry" />
        </mxCell>
        <mxCell id="3pWWZFJcayxJ1vsHzLGc-16" value="" style="rounded=0;whiteSpace=wrap;html=1;" parent="1" vertex="1">
          <mxGeometry x="359" y="470" width="75" height="70" as="geometry" />
        </mxCell>
        <mxCell id="3pWWZFJcayxJ1vsHzLGc-17" value="" style="rounded=0;whiteSpace=wrap;html=1;" parent="1" vertex="1">
          <mxGeometry x="369" y="480" width="75" height="70" as="geometry" />
        </mxCell>
        <mxCell id="3pWWZFJcayxJ1vsHzLGc-18" value="" style="rounded=0;whiteSpace=wrap;html=1;" parent="1" vertex="1">
          <mxGeometry x="379" y="490" width="75" height="70" as="geometry" />
        </mxCell>
        <mxCell id="3pWWZFJcayxJ1vsHzLGc-19" value="" style="rounded=0;whiteSpace=wrap;html=1;" parent="1" vertex="1">
          <mxGeometry x="389" y="500" width="75" height="70" as="geometry" />
        </mxCell>
        <mxCell id="3pWWZFJcayxJ1vsHzLGc-21" value="" style="rounded=0;whiteSpace=wrap;html=1;" parent="1" vertex="1">
          <mxGeometry x="369" y="480" width="75" height="70" as="geometry" />
        </mxCell>
        <mxCell id="3pWWZFJcayxJ1vsHzLGc-22" value="" style="rounded=0;whiteSpace=wrap;html=1;" parent="1" vertex="1">
          <mxGeometry x="379" y="490" width="75" height="70" as="geometry" />
        </mxCell>
        <mxCell id="3pWWZFJcayxJ1vsHzLGc-23" value="Nodes" style="rounded=0;whiteSpace=wrap;html=1;" parent="1" vertex="1">
          <mxGeometry x="389" y="500" width="75" height="70" as="geometry" />
        </mxCell>
        <mxCell id="WGsIFe5JLrjPhLiVAVNB-39" value="" style="rounded=1;whiteSpace=wrap;html=1;fontSize=10;align=left;" vertex="1" parent="1">
          <mxGeometry x="329" y="400" width="180" height="199" as="geometry" />
        </mxCell>
        <mxCell id="WGsIFe5JLrjPhLiVAVNB-40" value="Worker 1" style="rounded=0;whiteSpace=wrap;html=1;" vertex="1" parent="1">
          <mxGeometry x="349" y="419" width="140" height="31" as="geometry" />
        </mxCell>
        <mxCell id="WGsIFe5JLrjPhLiVAVNB-41" value="" style="rounded=0;whiteSpace=wrap;html=1;" vertex="1" parent="1">
          <mxGeometry x="369" y="480" width="75" height="70" as="geometry" />
        </mxCell>
        <mxCell id="WGsIFe5JLrjPhLiVAVNB-42" value="" style="rounded=0;whiteSpace=wrap;html=1;" vertex="1" parent="1">
          <mxGeometry x="379" y="490" width="75" height="70" as="geometry" />
        </mxCell>
        <mxCell id="WGsIFe5JLrjPhLiVAVNB-43" value="" style="rounded=0;whiteSpace=wrap;html=1;" vertex="1" parent="1">
          <mxGeometry x="389" y="500" width="75" height="70" as="geometry" />
        </mxCell>
        <mxCell id="WGsIFe5JLrjPhLiVAVNB-44" value="" style="rounded=0;whiteSpace=wrap;html=1;" vertex="1" parent="1">
          <mxGeometry x="399" y="510" width="75" height="70" as="geometry" />
        </mxCell>
        <mxCell id="WGsIFe5JLrjPhLiVAVNB-45" value="" style="rounded=0;whiteSpace=wrap;html=1;" vertex="1" parent="1">
          <mxGeometry x="379" y="490" width="75" height="70" as="geometry" />
        </mxCell>
        <mxCell id="WGsIFe5JLrjPhLiVAVNB-46" value="" style="rounded=0;whiteSpace=wrap;html=1;" vertex="1" parent="1">
          <mxGeometry x="389" y="500" width="75" height="70" as="geometry" />
        </mxCell>
        <mxCell id="WGsIFe5JLrjPhLiVAVNB-47" value="Nodes" style="rounded=0;whiteSpace=wrap;html=1;" vertex="1" parent="1">
          <mxGeometry x="399" y="510" width="75" height="70" as="geometry" />
        </mxCell>
        <mxCell id="WGsIFe5JLrjPhLiVAVNB-48" value="" style="rounded=1;whiteSpace=wrap;html=1;fontSize=10;align=left;" vertex="1" parent="1">
          <mxGeometry x="339" y="410" width="180" height="199" as="geometry" />
        </mxCell>
        <mxCell id="WGsIFe5JLrjPhLiVAVNB-49" value="Worker 1" style="rounded=0;whiteSpace=wrap;html=1;" vertex="1" parent="1">
          <mxGeometry x="359" y="429" width="140" height="31" as="geometry" />
        </mxCell>
        <mxCell id="WGsIFe5JLrjPhLiVAVNB-50" value="" style="rounded=0;whiteSpace=wrap;html=1;" vertex="1" parent="1">
          <mxGeometry x="379" y="490" width="75" height="70" as="geometry" />
        </mxCell>
        <mxCell id="WGsIFe5JLrjPhLiVAVNB-51" value="" style="rounded=0;whiteSpace=wrap;html=1;" vertex="1" parent="1">
          <mxGeometry x="389" y="500" width="75" height="70" as="geometry" />
        </mxCell>
        <mxCell id="WGsIFe5JLrjPhLiVAVNB-52" value="" style="rounded=0;whiteSpace=wrap;html=1;" vertex="1" parent="1">
          <mxGeometry x="399" y="510" width="75" height="70" as="geometry" />
        </mxCell>
        <mxCell id="WGsIFe5JLrjPhLiVAVNB-53" value="" style="rounded=0;whiteSpace=wrap;html=1;" vertex="1" parent="1">
          <mxGeometry x="409" y="520" width="75" height="70" as="geometry" />
        </mxCell>
        <mxCell id="WGsIFe5JLrjPhLiVAVNB-54" value="" style="rounded=0;whiteSpace=wrap;html=1;" vertex="1" parent="1">
          <mxGeometry x="389" y="500" width="75" height="70" as="geometry" />
        </mxCell>
        <mxCell id="WGsIFe5JLrjPhLiVAVNB-55" value="" style="rounded=0;whiteSpace=wrap;html=1;" vertex="1" parent="1">
          <mxGeometry x="399" y="510" width="75" height="70" as="geometry" />
        </mxCell>
        <mxCell id="WGsIFe5JLrjPhLiVAVNB-56" value="Nodes" style="rounded=0;whiteSpace=wrap;html=1;" vertex="1" parent="1">
          <mxGeometry x="409" y="520" width="75" height="70" as="geometry" />
        </mxCell>
        <mxCell id="WGsIFe5JLrjPhLiVAVNB-57" value="" style="rounded=1;whiteSpace=wrap;html=1;fontSize=10;align=left;" vertex="1" parent="1">
          <mxGeometry x="349" y="420" width="180" height="199" as="geometry" />
        </mxCell>
        <mxCell id="WGsIFe5JLrjPhLiVAVNB-58" value="Worker" style="rounded=0;whiteSpace=wrap;html=1;" vertex="1" parent="1">
          <mxGeometry x="366.5" y="568" width="140" height="31" as="geometry" />
        </mxCell>
        <mxCell id="WGsIFe5JLrjPhLiVAVNB-59" value="" style="rounded=0;whiteSpace=wrap;html=1;" vertex="1" parent="1">
          <mxGeometry x="389" y="440" width="75" height="70" as="geometry" />
        </mxCell>
        <mxCell id="WGsIFe5JLrjPhLiVAVNB-63" value="" style="rounded=0;whiteSpace=wrap;html=1;" vertex="1" parent="1">
          <mxGeometry x="399" y="450" width="75" height="70" as="geometry" />
        </mxCell>
        <mxCell id="WGsIFe5JLrjPhLiVAVNB-64" value="" style="rounded=0;whiteSpace=wrap;html=1;" vertex="1" parent="1">
          <mxGeometry x="409" y="460" width="75" height="70" as="geometry" />
        </mxCell>
        <mxCell id="WGsIFe5JLrjPhLiVAVNB-65" value="Nodes" style="rounded=0;whiteSpace=wrap;html=1;" vertex="1" parent="1">
          <mxGeometry x="419" y="470" width="75" height="70" as="geometry" />
        </mxCell>
        <mxCell id="WGsIFe5JLrjPhLiVAVNB-66" value="" style="ellipse;whiteSpace=wrap;html=1;aspect=fixed;fontSize=10;align=left;" vertex="1" parent="1">
          <mxGeometry x="394.5" y="260" width="60" height="60" as="geometry" />
        </mxCell>
        <mxCell id="WGsIFe5JLrjPhLiVAVNB-67" style="rounded=0;orthogonalLoop=1;jettySize=auto;html=1;exitX=0;exitY=0;exitDx=0;exitDy=0;entryX=1;entryY=1;entryDx=0;entryDy=0;fontSize=10;endArrow=none;endFill=0;" edge="1" parent="1" source="WGsIFe5JLrjPhLiVAVNB-66" target="WGsIFe5JLrjPhLiVAVNB-66">
          <mxGeometry relative="1" as="geometry" />
        </mxCell>
        <mxCell id="WGsIFe5JLrjPhLiVAVNB-68" style="edgeStyle=none;rounded=0;orthogonalLoop=1;jettySize=auto;html=1;exitX=1;exitY=0;exitDx=0;exitDy=0;entryX=0;entryY=1;entryDx=0;entryDy=0;fontSize=10;endArrow=none;endFill=0;" edge="1" parent="1" source="WGsIFe5JLrjPhLiVAVNB-66" target="WGsIFe5JLrjPhLiVAVNB-66">
          <mxGeometry relative="1" as="geometry" />
        </mxCell>
        <mxCell id="WGsIFe5JLrjPhLiVAVNB-69" value="&lt;font style=&quot;font-size: 13px&quot;&gt;Publish / Subscribe&lt;/font&gt;" style="rounded=0;whiteSpace=wrap;html=1;fontSize=10;align=center;" vertex="1" parent="1">
          <mxGeometry x="330" y="790" width="195" height="40" as="geometry" />
        </mxCell>
        <mxCell id="WGsIFe5JLrjPhLiVAVNB-70" value="" style="endArrow=classic;html=1;rounded=0;fontSize=13;entryX=0.625;entryY=0.968;entryDx=0;entryDy=0;entryPerimeter=0;exitX=0.644;exitY=0;exitDx=0;exitDy=0;exitPerimeter=0;" edge="1" parent="1" source="WGsIFe5JLrjPhLiVAVNB-69" target="WGsIFe5JLrjPhLiVAVNB-58">
          <mxGeometry width="50" height="50" relative="1" as="geometry">
            <mxPoint x="453.5" y="715" as="sourcePoint" />
            <mxPoint x="453.5" y="655" as="targetPoint" />
          </mxGeometry>
        </mxCell>
        <mxCell id="WGsIFe5JLrjPhLiVAVNB-71" value="" style="endArrow=classic;html=1;rounded=0;fontSize=13;exitX=0.25;exitY=1;exitDx=0;exitDy=0;entryX=0.372;entryY=0;entryDx=0;entryDy=0;entryPerimeter=0;" edge="1" parent="1" source="WGsIFe5JLrjPhLiVAVNB-58" target="WGsIFe5JLrjPhLiVAVNB-69">
          <mxGeometry width="50" height="50" relative="1" as="geometry">
            <mxPoint x="400" y="655" as="sourcePoint" />
            <mxPoint x="400" y="715" as="targetPoint" />
          </mxGeometry>
        </mxCell>
        <mxCell id="WGsIFe5JLrjPhLiVAVNB-73" value="Worker deployment" style="text;html=1;strokeColor=none;fillColor=none;align=center;verticalAlign=middle;whiteSpace=wrap;rounded=0;fontSize=13;" vertex="1" parent="1">
          <mxGeometry x="474" y="649" width="120.5" height="30" as="geometry" />
        </mxCell>
        <mxCell id="WGsIFe5JLrjPhLiVAVNB-77" value="Fila de Pods a escolnar" style="text;html=1;strokeColor=none;fillColor=none;align=left;verticalAlign=middle;whiteSpace=wrap;rounded=0;fontSize=13;" vertex="1" parent="1">
          <mxGeometry x="540" y="45" width="110" height="30" as="geometry" />
        </mxCell>
        <mxCell id="WGsIFe5JLrjPhLiVAVNB-79" value="" style="shape=curlyBracket;whiteSpace=wrap;html=1;rounded=1;flipH=1;fontSize=13;align=center;direction=south;" vertex="1" parent="1">
          <mxGeometry x="284" y="324" width="280" height="40" as="geometry" />
        </mxCell>
        <mxCell id="WGsIFe5JLrjPhLiVAVNB-81" value="Balanceador de carga (round robin)" style="text;html=1;strokeColor=none;fillColor=none;align=left;verticalAlign=middle;whiteSpace=wrap;rounded=0;fontSize=13;" vertex="1" parent="1">
          <mxGeometry x="462" y="275" width="132" height="30" as="geometry" />
        </mxCell>
        <mxCell id="WGsIFe5JLrjPhLiVAVNB-82" value="Escalonador define a quantidade de réplicas workers&amp;nbsp;" style="text;html=1;strokeColor=none;fillColor=none;align=right;verticalAlign=middle;whiteSpace=wrap;rounded=0;fontSize=13;" vertex="1" parent="1">
          <mxGeometry x="60" y="334" width="130" height="30" as="geometry" />
        </mxCell>
        <mxCell id="WGsIFe5JLrjPhLiVAVNB-83" value="Controlador de réplicas" style="rounded=0;whiteSpace=wrap;html=1;fontSize=13;align=center;" vertex="1" parent="1">
          <mxGeometry x="269" y="630" width="100" height="34" as="geometry" />
        </mxCell>
        <mxCell id="WGsIFe5JLrjPhLiVAVNB-85" value="Comunicação entre os workers por meio do protocolo publish / subscribe" style="text;html=1;strokeColor=none;fillColor=none;align=right;verticalAlign=middle;whiteSpace=wrap;rounded=0;fontSize=13;" vertex="1" parent="1">
          <mxGeometry x="169" y="689" width="225.5" height="80" as="geometry" />
        </mxCell>
        <mxCell id="WGsIFe5JLrjPhLiVAVNB-86" value="&lt;ol&gt;&lt;li&gt;Sincronizar os Nodes, definir o conjunto de nodes para cada worker&lt;/li&gt;&lt;li&gt;Emitir alerta quando não conseguir escalonar um conteiner em nenhum dos nodes&lt;/li&gt;&lt;/ol&gt;" style="text;html=1;strokeColor=none;fillColor=none;align=left;verticalAlign=middle;whiteSpace=wrap;rounded=0;fontSize=13;" vertex="1" parent="1">
          <mxGeometry x="438" y="679" width="314" height="100" as="geometry" />
        </mxCell>
        <mxCell id="WGsIFe5JLrjPhLiVAVNB-87" value="Envio dos contêineres para o serviço Worker" style="text;html=1;strokeColor=none;fillColor=none;align=right;verticalAlign=middle;whiteSpace=wrap;rounded=0;fontSize=13;" vertex="1" parent="1">
          <mxGeometry x="244" y="210" width="170" height="30" as="geometry" />
        </mxCell>
      </root>
    </mxGraphModel>
  </diagram>
</mxfile>
